<svg width="375" height="375" viewBox="0 0 375 375" fill="none" xmlns="http://www.w3.org/2000/svg">
<circle cx="187.5" cy="187.5" r="187.5" fill="url(#paint0_linear_3825_137)"/>
<mask id="path-2-outside-1_3825_137" maskUnits="userSpaceOnUse" x="52" y="128" width="268" height="130" fill="black">
<rect fill="white" x="52" y="128" width="268" height="130"/>
<path d="M167.379 249.111H88.4368C76.4521 249.111 68.115 245.594 68.115 231.134V213.418H142.889V209.9H68.115V193.877H167.379V229.441H92.6054C92.6054 232.046 92.7357 233.088 95.2108 233.088H167.379V249.111ZM132.337 162.743C132.337 176.812 124.261 189.188 96.2529 189.188C68.2452 189.188 60.1686 176.812 60.1686 162.743C60.1686 148.674 68.2452 136.299 96.2529 136.299C124.261 136.299 132.337 148.674 132.337 162.743ZM142.889 189.318V137.601H167.379V153.624H183.924V171.992H167.379V189.318H142.889ZM107.847 162.743C107.847 156.621 102.506 154.667 96.2529 154.667C90 154.667 84.659 156.621 84.659 162.743C84.659 168.866 90 170.82 96.2529 170.82C102.506 170.82 107.847 168.866 107.847 162.743ZM304.031 234.521V248.981H218.966C206.981 248.981 198.644 246.115 198.644 233.088V216.805H279.541V213.808H198.644V199.349H304.031V231.395H223.265C223.265 233.479 223.134 234.521 226.13 234.521H304.031ZM251.403 136.299C276.935 136.299 304.031 139.816 304.031 164.828V173.295H280.192V168.866C280.192 161.05 274.721 156.881 263.257 155.318V167.172H239.418V155.448C227.954 156.881 222.613 161.05 222.613 168.866V173.295H198.774V164.828C198.774 139.816 225.87 136.299 251.403 136.299ZM191.349 194.268V177.724H239.027V170.429H263.517V177.724H311.326V194.268H191.349Z"/>
</mask>
<path d="M167.379 249.111H88.4368C76.4521 249.111 68.115 245.594 68.115 231.134V213.418H142.889V209.9H68.115V193.877H167.379V229.441H92.6054C92.6054 232.046 92.7357 233.088 95.2108 233.088H167.379V249.111ZM132.337 162.743C132.337 176.812 124.261 189.188 96.2529 189.188C68.2452 189.188 60.1686 176.812 60.1686 162.743C60.1686 148.674 68.2452 136.299 96.2529 136.299C124.261 136.299 132.337 148.674 132.337 162.743ZM142.889 189.318V137.601H167.379V153.624H183.924V171.992H167.379V189.318H142.889ZM107.847 162.743C107.847 156.621 102.506 154.667 96.2529 154.667C90 154.667 84.659 156.621 84.659 162.743C84.659 168.866 90 170.82 96.2529 170.82C102.506 170.82 107.847 168.866 107.847 162.743ZM304.031 234.521V248.981H218.966C206.981 248.981 198.644 246.115 198.644 233.088V216.805H279.541V213.808H198.644V199.349H304.031V231.395H223.265C223.265 233.479 223.134 234.521 226.13 234.521H304.031ZM251.403 136.299C276.935 136.299 304.031 139.816 304.031 164.828V173.295H280.192V168.866C280.192 161.05 274.721 156.881 263.257 155.318V167.172H239.418V155.448C227.954 156.881 222.613 161.05 222.613 168.866V173.295H198.774V164.828C198.774 139.816 225.87 136.299 251.403 136.299ZM191.349 194.268V177.724H239.027V170.429H263.517V177.724H311.326V194.268H191.349Z" fill="#26272A"/>
<path d="M167.379 249.111V257.157H175.425V249.111H167.379ZM68.115 213.418V205.372H60.069V213.418H68.115ZM142.889 213.418V221.464H150.935V213.418H142.889ZM142.889 209.9H150.935V201.854H142.889V209.9ZM68.115 209.9H60.069V217.946H68.115V209.9ZM68.115 193.877V185.831H60.069V193.877H68.115ZM167.379 193.877H175.425V185.831H167.379V193.877ZM167.379 229.441V237.487H175.425V229.441H167.379ZM92.6054 229.441V221.395H84.5594V229.441H92.6054ZM167.379 233.088H175.425V225.042H167.379V233.088ZM142.889 189.318H134.843V197.364H142.889V189.318ZM142.889 137.601V129.555H134.843V137.601H142.889ZM167.379 137.601H175.425V129.555H167.379V137.601ZM167.379 153.624H159.333V161.67H167.379V153.624ZM183.924 153.624H191.97V145.578H183.924V153.624ZM183.924 171.992V180.038H191.97V171.992H183.924ZM167.379 171.992V163.946H159.333V171.992H167.379ZM167.379 189.318V197.364H175.425V189.318H167.379ZM167.379 249.111V241.065H88.4368V249.111V257.157H167.379V249.111ZM88.4368 249.111V241.065C82.884 241.065 80.03 240.174 78.6092 239.108C77.7143 238.437 76.1609 236.792 76.1609 231.134H68.115H60.069C60.069 239.936 62.6842 247.279 68.954 251.982C74.698 256.29 82.0049 257.157 88.4368 257.157V249.111ZM68.115 231.134H76.1609V213.418H68.115H60.069V231.134H68.115ZM68.115 213.418V221.464H142.889V213.418V205.372H68.115V213.418ZM142.889 213.418H150.935V209.9H142.889H134.843V213.418H142.889ZM142.889 209.9V201.854H68.115V209.9V217.946H142.889V209.9ZM68.115 209.9H76.1609V193.877H68.115H60.069V209.9H68.115ZM68.115 193.877V201.923H167.379V193.877V185.831H68.115V193.877ZM167.379 193.877H159.333V229.441H167.379H175.425V193.877H167.379ZM167.379 229.441V221.395H92.6054V229.441V237.487H167.379V229.441ZM92.6054 229.441H84.5594C84.5594 230.064 84.5614 231.029 84.6664 231.987C84.7683 232.916 85.0329 234.586 86.03 236.296C88.6442 240.777 93.273 241.134 95.2108 241.134V233.088V225.042C95.0334 225.042 95.6848 225.005 96.645 225.374C97.8747 225.846 99.1166 226.793 99.9299 228.187C100.585 229.31 100.662 230.231 100.662 230.233C100.666 230.262 100.651 230.12 100.651 229.441H92.6054ZM95.2108 233.088V241.134H167.379V233.088V225.042H95.2108V233.088ZM167.379 233.088H159.333V249.111H167.379H175.425V233.088H167.379ZM132.337 162.743H124.291C124.291 168.232 122.765 172.316 119.486 175.198C116.013 178.251 109.242 181.142 96.2529 181.142V189.188V197.234C111.271 197.234 122.542 193.937 130.11 187.284C137.872 180.462 140.383 171.324 140.383 162.743H132.337ZM96.2529 189.188V181.142C83.2636 181.142 76.4925 178.251 73.0201 175.198C69.7412 172.316 68.2146 168.232 68.2146 162.743H60.1686H52.1226C52.1226 171.324 54.6343 180.462 62.3957 187.284C69.9635 193.937 81.2345 197.234 96.2529 197.234V189.188ZM60.1686 162.743H68.2146C68.2146 157.255 69.7412 153.17 73.0201 150.288C76.4925 147.236 83.2636 144.345 96.2529 144.345V136.299V128.253C81.2345 128.253 69.9634 131.55 62.3957 138.202C54.6343 145.025 52.1226 154.163 52.1226 162.743H60.1686ZM96.2529 136.299V144.345C109.242 144.345 116.013 147.236 119.486 150.288C122.765 153.17 124.291 157.255 124.291 162.743H132.337H140.383C140.383 154.163 137.872 145.025 130.11 138.202C122.542 131.55 111.271 128.253 96.2529 128.253V136.299ZM142.889 189.318H150.935V137.601H142.889H134.843V189.318H142.889ZM142.889 137.601V145.647H167.379V137.601V129.555H142.889V137.601ZM167.379 137.601H159.333V153.624H167.379H175.425V137.601H167.379ZM167.379 153.624V161.67H183.924V153.624V145.578H167.379V153.624ZM183.924 153.624H175.878V171.992H183.924H191.97V153.624H183.924ZM183.924 171.992V163.946H167.379V171.992V180.038H183.924V171.992ZM167.379 171.992H159.333V189.318H167.379H175.425V171.992H167.379ZM167.379 189.318V181.272H142.889V189.318V197.364H167.379V189.318ZM107.847 162.743H115.893C115.893 156.81 113.032 152.174 108.495 149.486C104.567 147.16 99.9726 146.621 96.2529 146.621V154.667V162.713C97.4191 162.713 98.3733 162.806 99.1088 162.954C99.857 163.105 100.205 163.279 100.294 163.332C100.338 163.358 100.125 163.233 99.9337 162.899C99.7405 162.562 99.8008 162.415 99.8008 162.743H107.847ZM96.2529 154.667V146.621C92.5332 146.621 87.9385 147.16 84.0107 149.486C79.4735 152.174 76.6131 156.81 76.6131 162.743H84.659H92.705C92.705 162.415 92.7654 162.562 92.5721 162.899C92.381 163.233 92.1676 163.358 92.2116 163.332C92.3004 163.279 92.6489 163.105 93.397 162.954C94.1325 162.806 95.0868 162.713 96.2529 162.713V154.667ZM84.659 162.743H76.6131C76.6131 168.676 79.4735 173.313 84.0107 176C87.9385 178.327 92.5332 178.866 96.2529 178.866V170.82V162.774C95.0868 162.774 94.1325 162.681 93.397 162.532C92.6489 162.381 92.3004 162.207 92.2116 162.155C92.1676 162.129 92.381 162.254 92.5721 162.587C92.7654 162.925 92.705 163.072 92.705 162.743H84.659ZM96.2529 170.82V178.866C99.9726 178.866 104.567 178.327 108.495 176C113.032 173.313 115.893 168.676 115.893 162.743H107.847H99.8008C99.8008 163.072 99.7405 162.925 99.9337 162.587C100.125 162.254 100.338 162.129 100.294 162.155C100.205 162.207 99.857 162.381 99.1088 162.532C98.3733 162.681 97.4191 162.774 96.2529 162.774V170.82ZM304.031 234.521H312.077V226.475H304.031V234.521ZM304.031 248.981V257.027H312.077V248.981H304.031ZM198.644 216.805V208.759H190.598V216.805H198.644ZM279.54 216.805V224.851H287.586V216.805H279.54ZM279.54 213.808H287.586V205.762H279.54V213.808ZM198.644 213.808H190.598V221.854H198.644V213.808ZM198.644 199.349V191.303H190.598V199.349H198.644ZM304.031 199.349H312.077V191.303H304.031V199.349ZM304.031 231.395V239.441H312.077V231.395H304.031ZM223.265 231.395V223.349H215.219V231.395H223.265ZM304.031 173.295V181.341H312.077V173.295H304.031ZM280.192 173.295H272.146V181.341H280.192V173.295ZM263.257 155.318L264.344 147.346L255.211 146.1V155.318H263.257ZM263.257 167.172V175.218H271.303V167.172H263.257ZM239.418 167.172H231.372V175.218H239.418V167.172ZM239.418 155.448H247.464V146.334L238.42 147.464L239.418 155.448ZM222.613 173.295V181.341H230.659V173.295H222.613ZM198.774 173.295H190.728V181.341H198.774V173.295ZM191.349 194.268H183.303V202.314H191.349V194.268ZM191.349 177.724V169.678H183.303V177.724H191.349ZM239.027 177.724V185.77H247.073V177.724H239.027ZM239.027 170.429V162.383H230.981V170.429H239.027ZM263.518 170.429H271.563V162.383H263.518V170.429ZM263.518 177.724H255.472V185.77H263.518V177.724ZM311.326 177.724H319.372V169.678H311.326V177.724ZM311.326 194.268V202.314H319.372V194.268H311.326ZM304.031 234.521H295.985V248.981H304.031H312.077V234.521H304.031ZM304.031 248.981V240.935H218.966V248.981V257.027H304.031V248.981ZM218.966 248.981V240.935C213.224 240.935 210.207 240.163 208.717 239.187C208.015 238.728 206.69 237.706 206.69 233.088H198.644H190.598C190.598 241.497 193.442 248.422 199.904 252.652C205.578 256.366 212.723 257.027 218.966 257.027V248.981ZM198.644 233.088H206.69V216.805H198.644H190.598V233.088H198.644ZM198.644 216.805V224.851H279.54V216.805V208.759H198.644V216.805ZM279.54 216.805H287.586V213.808H279.54H271.495V216.805H279.54ZM279.54 213.808V205.762H198.644V213.808V221.854H279.54V213.808ZM198.644 213.808H206.69V199.349H198.644H190.598V213.808H198.644ZM198.644 199.349V207.395H304.031V199.349V191.303H198.644V199.349ZM304.031 199.349H295.985V231.395H304.031H312.077V199.349H304.031ZM304.031 231.395V223.349H223.265V231.395V239.441H304.031V231.395ZM223.265 231.395H215.219C215.219 231.645 215.201 232.621 215.276 233.472C215.357 234.381 215.606 236.263 216.847 238.154C219.703 242.506 224.578 242.567 226.13 242.567V234.521V226.475C225.725 226.475 226.122 226.424 226.86 226.659C227.808 226.961 229.249 227.722 230.301 229.325C231.2 230.695 231.294 231.926 231.306 232.053C231.312 232.122 231.311 232.186 231.311 231.395H223.265ZM226.13 234.521V242.567H304.031V234.521V226.475H226.13V234.521ZM251.403 136.299V144.345C264.105 144.345 275.886 145.271 284.291 148.649C288.362 150.286 291.188 152.325 293.005 154.703C294.747 156.984 295.985 160.123 295.985 164.827H304.031H312.077C312.077 157.027 309.928 150.347 305.792 144.933C301.73 139.617 296.187 136.088 290.292 133.718C278.766 129.085 264.233 128.253 251.403 128.253V136.299ZM304.031 164.827H295.985V173.295H304.031H312.077V164.827H304.031ZM304.031 173.295V165.249H280.192V173.295V181.341H304.031V173.295ZM280.192 173.295H288.238V168.866H280.192H272.146V173.295H280.192ZM280.192 168.866H288.238C288.238 162.768 285.947 157.337 281.014 153.436C276.55 149.906 270.63 148.203 264.344 147.346L263.257 155.318L262.17 163.29C267.348 163.996 269.895 165.158 271.033 166.058C271.701 166.586 272.146 167.147 272.146 168.866H280.192ZM263.257 155.318H255.211V167.172H263.257H271.303V155.318H263.257ZM263.257 167.172V159.126H239.418V167.172V175.218H263.257V167.172ZM239.418 167.172H247.464V155.448H239.418H231.372V167.172H239.418ZM239.418 155.448L238.42 147.464C232.117 148.252 226.182 149.914 221.713 153.462C216.775 157.384 214.567 162.839 214.567 168.866H222.613H230.659C230.659 167.077 231.122 166.539 231.72 166.064C232.788 165.216 235.255 164.077 240.416 163.432L239.418 155.448ZM222.613 168.866H214.567V173.295H222.613H230.659V168.866H222.613ZM222.613 173.295V165.249H198.774V173.295V181.341H222.613V173.295ZM198.774 173.295H206.82V164.827H198.774H190.728V173.295H198.774ZM198.774 164.827H206.82C206.82 160.123 208.058 156.984 209.8 154.703C211.617 152.325 214.443 150.286 218.514 148.649C226.919 145.271 238.7 144.345 251.403 144.345V136.299V128.253C238.572 128.253 224.039 129.085 212.513 133.718C206.618 136.088 201.075 139.617 197.013 144.933C192.877 150.347 190.728 157.027 190.728 164.827H198.774ZM191.349 194.268H199.395V177.724H191.349H183.303V194.268H191.349ZM191.349 177.724V185.77H239.027V177.724V169.678H191.349V177.724ZM239.027 177.724H247.073V170.429H239.027H230.981V177.724H239.027ZM239.027 170.429V178.475H263.518V170.429V162.383H239.027V170.429ZM263.518 170.429H255.472V177.724H263.518H271.563V170.429H263.518ZM263.518 177.724V185.77H311.326V177.724V169.678H263.518V177.724ZM311.326 177.724H303.28V194.268H311.326H319.372V177.724H311.326ZM311.326 194.268V186.222H191.349V194.268V202.314H311.326V194.268Z" fill="#FDFFFE" mask="url(#path-2-outside-1_3825_137)"/>
<defs>
<linearGradient id="paint0_linear_3825_137" x1="187.5" y1="0" x2="187.5" y2="375" gradientUnits="userSpaceOnUse">
<stop stop-color="#67E296"/>
<stop offset="1" stop-color="#3BD3A7"/>
</linearGradient>
</defs>
</svg>
