<svg width="31" height="14" viewBox="0 0 31 14" fill="none" xmlns="http://www.w3.org/2000/svg">
<path d="M13.1684 13.856H3.47244C2.00044 13.856 0.976438 13.424 0.976438 11.648V9.472H10.1604V9.04H0.976438V7.072H13.1684V11.44H3.98444C3.98444 11.76 4.00044 11.888 4.30444 11.888H13.1684V13.856ZM8.86444 3.248C8.86444 4.976 7.87244 6.496 4.43244 6.496C0.992438 6.496 0.000437677 4.976 0.000437677 3.248C0.000437677 1.52 0.992438 -9.53674e-07 4.43244 -9.53674e-07C7.87244 -9.53674e-07 8.86444 1.52 8.86444 3.248ZM10.1604 6.512V0.16H13.1684V2.128H15.2004V4.384H13.1684V6.512H10.1604ZM5.85644 3.248C5.85644 2.496 5.20044 2.256 4.43244 2.256C3.66444 2.256 3.00844 2.496 3.00844 3.248C3.00844 4 3.66444 4.24 4.43244 4.24C5.20044 4.24 5.85644 4 5.85644 3.248ZM29.7724 12.064V13.84H19.3244C17.8524 13.84 16.8284 13.488 16.8284 11.888V9.888H26.7644V9.52H16.8284V7.744H29.7724V11.68H19.8524C19.8524 11.936 19.8364 12.064 20.2044 12.064H29.7724ZM23.3084 -9.53674e-07C26.4444 -9.53674e-07 29.7724 0.431999 29.7724 3.504V4.544H26.8444V4C26.8444 3.04 26.1724 2.528 24.7644 2.336V3.792H21.8364V2.352C20.4284 2.528 19.7724 3.04 19.7724 4V4.544H16.8444V3.504C16.8444 0.431999 20.1724 -9.53674e-07 23.3084 -9.53674e-07ZM15.9324 7.12V5.088H21.7884V4.192H24.7964V5.088H30.6684V7.12H15.9324Z" fill="#26272A"/>
</svg>
