<svg width="168" height="168" viewBox="0 0 168 168" fill="none" xmlns="http://www.w3.org/2000/svg">
<circle cx="84" cy="84" r="84" fill="#FDFFFE"/>
<mask id="path-2-outside-1_2675_3257" maskUnits="userSpaceOnUse" x="23.0884" y="57.2789" width="120" height="59" fill="black">
<rect fill="white" x="23.0884" y="57.2789" width="120" height="59"/>
<path d="M74.9864 112.049H39.6201C34.2509 112.049 30.5159 110.473 30.5159 103.995V96.058H64.0147V94.4823H30.5159V87.304H74.9864V103.236H41.4876C41.4876 104.404 41.546 104.87 42.6548 104.87H74.9864V112.049ZM59.2875 73.3559C59.2875 79.6588 55.6691 85.203 43.1217 85.203C30.5742 85.203 26.9559 79.6588 26.9559 73.3559C26.9559 67.053 30.5742 61.5088 43.1217 61.5088C55.6691 61.5088 59.2875 67.053 59.2875 73.3559ZM64.0147 85.2614V62.0924H74.9864V69.2707H82.3981V77.4995H74.9864V85.2614H64.0147ZM48.3158 73.3559C48.3158 70.613 45.923 69.7376 43.1217 69.7376C40.3204 69.7376 37.9276 70.613 37.9276 73.3559C37.9276 76.0988 40.3204 76.9742 43.1217 76.9742C45.923 76.9742 48.3158 76.0988 48.3158 73.3559ZM136.206 105.512V111.99H98.097C92.7279 111.99 88.9928 110.706 88.9928 104.87V97.5754H125.235V96.2331H88.9928V89.7551H136.206V104.112H100.023C100.023 105.045 99.9645 105.512 101.307 105.512H136.206ZM112.629 61.5088C124.067 61.5088 136.206 63.0845 136.206 74.2896V78.0831H125.526V76.0988C125.526 72.5972 123.075 70.7297 117.939 70.0294V75.3401H107.26V70.0877C102.124 70.7297 99.7311 72.5972 99.7311 76.0988V78.0831H89.0512V74.2896C89.0512 63.0845 101.19 61.5088 112.629 61.5088ZM85.7247 87.4791V80.0673H107.084V76.7991H118.056V80.0673H139.474V87.4791H85.7247Z"/>
</mask>
<path d="M74.9864 112.049H39.6201C34.2509 112.049 30.5159 110.473 30.5159 103.995V96.058H64.0147V94.4823H30.5159V87.304H74.9864V103.236H41.4876C41.4876 104.404 41.546 104.87 42.6548 104.87H74.9864V112.049ZM59.2875 73.3559C59.2875 79.6588 55.6691 85.203 43.1217 85.203C30.5742 85.203 26.9559 79.6588 26.9559 73.3559C26.9559 67.053 30.5742 61.5088 43.1217 61.5088C55.6691 61.5088 59.2875 67.053 59.2875 73.3559ZM64.0147 85.2614V62.0924H74.9864V69.2707H82.3981V77.4995H74.9864V85.2614H64.0147ZM48.3158 73.3559C48.3158 70.613 45.923 69.7376 43.1217 69.7376C40.3204 69.7376 37.9276 70.613 37.9276 73.3559C37.9276 76.0988 40.3204 76.9742 43.1217 76.9742C45.923 76.9742 48.3158 76.0988 48.3158 73.3559ZM136.206 105.512V111.99H98.097C92.7279 111.99 88.9928 110.706 88.9928 104.87V97.5754H125.235V96.2331H88.9928V89.7551H136.206V104.112H100.023C100.023 105.045 99.9645 105.512 101.307 105.512H136.206ZM112.629 61.5088C124.067 61.5088 136.206 63.0845 136.206 74.2896V78.0831H125.526V76.0988C125.526 72.5972 123.075 70.7297 117.939 70.0294V75.3401H107.26V70.0877C102.124 70.7297 99.7311 72.5972 99.7311 76.0988V78.0831H89.0512V74.2896C89.0512 63.0845 101.19 61.5088 112.629 61.5088ZM85.7247 87.4791V80.0673H107.084V76.7991H118.056V80.0673H139.474V87.4791H85.7247Z" fill="#26272A"/>
<path d="M74.9864 112.049V115.653H78.591V112.049H74.9864ZM30.5159 96.058V92.4534H26.9113V96.058H30.5159ZM64.0147 96.058V99.6626H67.6193V96.058H64.0147ZM64.0147 94.4823H67.6193V90.8777H64.0147V94.4823ZM30.5159 94.4823H26.9113V98.0869H30.5159V94.4823ZM30.5159 87.304V83.6994H26.9113V87.304H30.5159ZM74.9864 87.304H78.591V83.6994H74.9864V87.304ZM74.9864 103.236V106.841H78.591V103.236H74.9864ZM41.4876 103.236V99.6317H37.883V103.236H41.4876ZM74.9864 104.87H78.591V101.266H74.9864V104.87ZM64.0147 85.2614H60.4101V88.866H64.0147V85.2614ZM64.0147 62.0924V58.4878H60.4101V62.0924H64.0147ZM74.9864 62.0924H78.591V58.4878H74.9864V62.0924ZM74.9864 69.2707H71.3818V72.8753H74.9864V69.2707ZM82.3981 69.2707H86.0027V65.6661H82.3981V69.2707ZM82.3981 77.4995V81.1041H86.0027V77.4995H82.3981ZM74.9864 77.4995V73.8949H71.3818V77.4995H74.9864ZM74.9864 85.2614V88.866H78.591V85.2614H74.9864ZM74.9864 112.049V108.444H39.6201V112.049V115.653H74.9864V112.049ZM39.6201 112.049V108.444C37.1324 108.444 35.8538 108.045 35.2173 107.567C34.8164 107.267 34.1205 106.53 34.1205 103.995H30.5159H26.9113C26.9113 107.938 28.0829 111.228 30.8918 113.335C33.4651 115.265 36.7386 115.653 39.6201 115.653V112.049ZM30.5159 103.995H34.1205V96.058H30.5159H26.9113V103.995H30.5159ZM30.5159 96.058V99.6626H64.0147V96.058V92.4534H30.5159V96.058ZM64.0147 96.058H67.6193V94.4823H64.0147H60.4101V96.058H64.0147ZM64.0147 94.4823V90.8777H30.5159V94.4823V98.0869H64.0147V94.4823ZM30.5159 94.4823H34.1205V87.304H30.5159H26.9113V94.4823H30.5159ZM30.5159 87.304V90.9086H74.9864V87.304V83.6994H30.5159V87.304ZM74.9864 87.304H71.3818V103.236H74.9864H78.591V87.304H74.9864ZM74.9864 103.236V99.6317H41.4876V103.236V106.841H74.9864V103.236ZM41.4876 103.236H37.883C37.883 103.516 37.8839 103.948 37.9309 104.377C37.9766 104.793 38.0951 105.542 38.5418 106.307C39.713 108.315 41.7867 108.475 42.6548 108.475V104.87V101.266C42.5753 101.266 42.8672 101.249 43.2973 101.414C43.8483 101.626 44.4046 102.05 44.769 102.675C45.0625 103.178 45.0971 103.591 45.0972 103.591C45.0986 103.604 45.0922 103.54 45.0922 103.236H41.4876ZM42.6548 104.87V108.475H74.9864V104.87V101.266H42.6548V104.87ZM74.9864 104.87H71.3818V112.049H74.9864H78.591V104.87H74.9864ZM59.2875 73.3559H55.6829C55.6829 75.8147 54.9989 77.6445 53.53 78.9357C51.9743 80.3033 48.9409 81.5984 43.1217 81.5984V85.203V88.8076C49.8499 88.8076 54.8994 87.3306 58.2897 84.3503C61.7668 81.2938 62.8921 77.2 62.8921 73.3559H59.2875ZM43.1217 85.203V81.5984C37.3025 81.5984 34.269 80.3033 32.7134 78.9357C31.2444 77.6445 30.5605 75.8147 30.5605 73.3559H26.9559H23.3513C23.3513 77.2 24.4765 81.2938 27.9536 84.3503C31.344 87.3306 36.3935 88.8076 43.1217 88.8076V85.203ZM26.9559 73.3559H30.5605C30.5605 70.8971 31.2444 69.0673 32.7134 67.776C34.269 66.4085 37.3025 65.1134 43.1217 65.1134V61.5088V57.9042C36.3935 57.9042 31.344 59.3811 27.9536 62.3614C24.4765 65.418 23.3513 69.5118 23.3513 73.3559H26.9559ZM43.1217 61.5088V65.1134C48.9409 65.1134 51.9743 66.4085 53.53 67.776C54.9989 69.0673 55.6829 70.8971 55.6829 73.3559H59.2875H62.8921C62.8921 69.5118 61.7668 65.418 58.2897 62.3614C54.8994 59.3811 49.8499 57.9042 43.1217 57.9042V61.5088ZM64.0147 85.2614H67.6193V62.0924H64.0147H60.4101V85.2614H64.0147ZM64.0147 62.0924V65.697H74.9864V62.0924V58.4878H64.0147V62.0924ZM74.9864 62.0924H71.3818V69.2707H74.9864H78.591V62.0924H74.9864ZM74.9864 69.2707V72.8753H82.3981V69.2707V65.6661H74.9864V69.2707ZM82.3981 69.2707H78.7935V77.4995H82.3981H86.0027V69.2707H82.3981ZM82.3981 77.4995V73.8949H74.9864V77.4995V81.1041H82.3981V77.4995ZM74.9864 77.4995H71.3818V85.2614H74.9864H78.591V77.4995H74.9864ZM74.9864 85.2614V81.6568H64.0147V85.2614V88.866H74.9864V85.2614ZM48.3158 73.3559H51.9204C51.9204 70.6978 50.6389 68.6207 48.6062 67.4167C46.8466 66.3745 44.7881 66.133 43.1217 66.133V69.7376V73.3422C43.6441 73.3422 44.0716 73.3838 44.4011 73.4504C44.7363 73.5181 44.8924 73.5959 44.9322 73.6195C44.9519 73.6312 44.8563 73.5751 44.7707 73.4257C44.6841 73.2746 44.7111 73.2087 44.7111 73.3559H48.3158ZM43.1217 69.7376V66.133C41.4553 66.133 39.3968 66.3745 37.6372 67.4167C35.6045 68.6207 34.323 70.6978 34.323 73.3559H37.9276H41.5322C41.5322 73.2087 41.5593 73.2746 41.4727 73.4257C41.387 73.5751 41.2915 73.6312 41.3112 73.6195C41.351 73.5959 41.5071 73.5181 41.8423 73.4504C42.1718 73.3838 42.5992 73.3422 43.1217 73.3422V69.7376ZM37.9276 73.3559H34.323C34.323 76.0139 35.6045 78.0911 37.6372 79.295C39.3968 80.3373 41.4553 80.5788 43.1217 80.5788V76.9742V73.3696C42.5992 73.3696 42.1718 73.328 41.8423 73.2614C41.5071 73.1937 41.351 73.1158 41.3112 73.0923C41.2915 73.0806 41.387 73.1367 41.4727 73.2861C41.5593 73.4372 41.5322 73.503 41.5322 73.3559H37.9276ZM43.1217 76.9742V80.5788C44.7881 80.5788 46.8466 80.3373 48.6062 79.295C50.6389 78.0911 51.9204 76.0139 51.9204 73.3559H48.3158H44.7111C44.7111 73.503 44.6841 73.4372 44.7707 73.2861C44.8563 73.1367 44.9519 73.0806 44.9322 73.0923C44.8924 73.1158 44.7363 73.1937 44.4011 73.2614C44.0716 73.328 43.6441 73.3696 43.1217 73.3696V76.9742ZM136.206 105.512H139.811V101.908H136.206V105.512ZM136.206 111.99V115.595H139.811V111.99H136.206ZM88.9928 97.5754V93.9708H85.3882V97.5754H88.9928ZM125.235 97.5754V101.18H128.839V97.5754H125.235ZM125.235 96.2331H128.839V92.6285H125.235V96.2331ZM88.9928 96.2331H85.3882V99.8377H88.9928V96.2331ZM88.9928 89.7551V86.1505H85.3882V89.7551H88.9928ZM136.206 89.7551H139.811V86.1505H136.206V89.7551ZM136.206 104.112V107.716H139.811V104.112H136.206ZM100.023 104.112V100.507H96.4183V104.112H100.023ZM136.206 78.0831V81.6877H139.811V78.0831H136.206ZM125.526 78.0831H121.922V81.6877H125.526V78.0831ZM117.939 70.0294L118.427 66.4578L114.335 65.8999V70.0294H117.939ZM117.939 75.3401V78.9447H121.544V75.3401H117.939ZM107.26 75.3401H103.655V78.9447H107.26V75.3401ZM107.26 70.0877H110.864V66.0045L106.812 66.5109L107.26 70.0877ZM99.7311 78.0831V81.6877H103.336V78.0831H99.7311ZM89.0512 78.0831H85.4466V81.6877H89.0512V78.0831ZM85.7247 87.4791H82.1201V91.0837H85.7247V87.4791ZM85.7247 80.0673V76.4627H82.1201V80.0673H85.7247ZM107.084 80.0673V83.6719H110.689V80.0673H107.084ZM107.084 76.7991V73.1945H103.48V76.7991H107.084ZM118.056 76.7991H121.661V73.1945H118.056V76.7991ZM118.056 80.0673H114.452V83.6719H118.056V80.0673ZM139.474 80.0673H143.079V76.4627H139.474V80.0673ZM139.474 87.4791V91.0837H143.079V87.4791H139.474ZM136.206 105.512H132.602V111.99H136.206H139.811V105.512H136.206ZM136.206 111.99V108.386H98.097V111.99V115.595H136.206V111.99ZM98.097 111.99V108.386C95.5247 108.386 94.1733 108.04 93.5056 107.603C93.191 107.397 92.5974 106.939 92.5974 104.87H88.9928H85.3882C85.3882 108.638 86.6622 111.74 89.5574 113.635C92.0995 115.299 95.3002 115.595 98.097 115.595V111.99ZM88.9928 104.87H92.5974V97.5754H88.9928H85.3882V104.87H88.9928ZM88.9928 97.5754V101.18H125.235V97.5754V93.9708H88.9928V97.5754ZM125.235 97.5754H128.839V96.2331H125.235H121.63V97.5754H125.235ZM125.235 96.2331V92.6285H88.9928V96.2331V99.8377H125.235V96.2331ZM88.9928 96.2331H92.5974V89.7551H88.9928H85.3882V96.2331H88.9928ZM88.9928 89.7551V93.3597H136.206V89.7551V86.1505H88.9928V89.7551ZM136.206 89.7551H132.602V104.112H136.206H139.811V89.7551H136.206ZM136.206 104.112V100.507H100.023V104.112V107.716H136.206V104.112ZM100.023 104.112H96.4183C96.4183 104.224 96.4105 104.661 96.4442 105.042C96.4803 105.45 96.5918 106.293 97.1479 107.14C98.4273 109.089 100.611 109.117 101.307 109.117V105.512V101.908C101.125 101.908 101.303 101.885 101.634 101.99C102.058 102.125 102.704 102.466 103.175 103.185C103.578 103.798 103.62 104.35 103.625 104.407C103.628 104.438 103.628 104.466 103.628 104.112H100.023ZM101.307 105.512V109.117H136.206V105.512V101.908H101.307V105.512ZM112.629 61.5088V65.1134C118.319 65.1134 123.597 65.5283 127.363 67.0418C129.186 67.7749 130.453 68.6887 131.267 69.7538C132.047 70.7755 132.602 72.1819 132.602 74.2896H136.206H139.811C139.811 70.7949 138.848 67.8023 136.995 65.3771C135.175 62.9953 132.692 61.4142 130.051 60.3527C124.888 58.2771 118.377 57.9042 112.629 57.9042V61.5088ZM136.206 74.2896H132.602V78.0831H136.206H139.811V74.2896H136.206ZM136.206 78.0831V74.4785H125.526V78.0831V81.6877H136.206V78.0831ZM125.526 78.0831H129.131V76.0988H125.526H121.922V78.0831H125.526ZM125.526 76.0988H129.131C129.131 73.3672 128.105 70.9338 125.895 69.1861C123.895 67.605 121.242 66.8418 118.427 66.4578L117.939 70.0294L117.452 73.6009C119.772 73.9172 120.913 74.4379 121.423 74.8411C121.722 75.0777 121.922 75.3288 121.922 76.0988H125.526ZM117.939 70.0294H114.335V75.3401H117.939H121.544V70.0294H117.939ZM117.939 75.3401V71.7355H107.26V75.3401V78.9447H117.939V75.3401ZM107.26 75.3401H110.864V70.0877H107.26H103.655V75.3401H107.26ZM107.26 70.0877L106.812 66.5109C103.989 66.8639 101.33 67.6083 99.3278 69.1981C97.1155 70.955 96.1265 73.3986 96.1265 76.0988H99.7311H103.336C103.336 75.2974 103.543 75.0565 103.811 74.8437C104.289 74.4639 105.395 73.9535 107.707 73.6645L107.26 70.0877ZM99.7311 76.0988H96.1265V78.0831H99.7311H103.336V76.0988H99.7311ZM99.7311 78.0831V74.4785H89.0512V78.0831V81.6877H99.7311V78.0831ZM89.0512 78.0831H92.6558V74.2896H89.0512H85.4466V78.0831H89.0512ZM89.0512 74.2896H92.6558C92.6558 72.1819 93.2103 70.7755 93.9909 69.7538C94.8047 68.6887 96.071 67.7749 97.8948 67.0418C101.66 65.5283 106.938 65.1134 112.629 65.1134V61.5088V57.9042C106.881 57.9042 100.37 58.2771 95.2061 60.3527C92.5654 61.4142 90.0821 62.9953 88.2623 65.3771C86.4094 67.8023 85.4466 70.7949 85.4466 74.2896H89.0512ZM85.7247 87.4791H89.3293V80.0673H85.7247H82.1201V87.4791H85.7247ZM85.7247 80.0673V83.6719H107.084V80.0673V76.4627H85.7247V80.0673ZM107.084 80.0673H110.689V76.7991H107.084H103.48V80.0673H107.084ZM107.084 76.7991V80.4037H118.056V76.7991V73.1945H107.084V76.7991ZM118.056 76.7991H114.452V80.0673H118.056H121.661V76.7991H118.056ZM118.056 80.0673V83.6719H139.474V80.0673V76.4627H118.056V80.0673ZM139.474 80.0673H135.87V87.4791H139.474H143.079V80.0673H139.474ZM139.474 87.4791V83.8745H85.7247V87.4791V91.0837H139.474V87.4791Z" fill="#FDFFFE" mask="url(#path-2-outside-1_2675_3257)"/>
</svg>
